<svg xmlns="http://www.w3.org/2000/svg" viewBox="0 0 64 64" fill="none">
  <rect x="2" y="2" width="60" height="60" rx="18" fill="rgba(255,255,255,0.04)"/>
  <path d="M32 14c-9.9 0-18 8-18 17.8 0 3.1.8 6.1 2.4 8.8L14 50l9.8-2.6a18.2 18.2 0 0 0 8.2 2c10 0 18-8 18-17.8S42 14 32 14Zm0 30.6c-2.5 0-4.9-.7-7-2l-.5-.3-5.8 1.5 1.6-5.6-.4-.6a13.4 13.4 0 0 1-2.2-7.4c0-7.4 6.4-13.5 14.3-13.5 7.8 0 14.2 6 14.2 13.5S39.8 44.6 32 44.6Z" fill="white" fill-opacity="0.92"/>
  <path d="M39.8 36.3c-.4-.2-2.6-1.3-3-1.5-.4-.1-.7-.2-1 .2-.3.4-1.1 1.5-1.4 1.7-.3.3-.5.3-1 .1-2.8-1.4-4.7-3.8-5.2-4.6-.3-.5 0-.8.2-1.1.2-.2.4-.5.6-.7.2-.3.3-.5.4-.8.1-.3 0-.6 0-.8 0-.2-1-2.4-1.4-3.3-.3-.8-.7-.7-1-.7h-.8c-.3 0-.8.1-1.2.5-.4.4-1.5 1.4-1.5 3.5s1.5 4 1.8 4.3c.2.3 3 4.5 7.2 6.2 4.3 1.7 4.3 1.1 5 .9.7-.1 2.6-1 3-2 .4-1 .4-1.8.3-2-.1-.2-.4-.3-.8-.6Z" fill="white" fill-opacity="0.92"/>
</svg>
